HIERARCHY
ROOT Hips
{
	OFFSET	0.00	0.00	0.00
	CHANNELS 6 Xposition Yposition Zposition Zrotation Xrotation Yrotation
	JOINT LeftHip
	{
		OFFSET	 3.430000	 0.000000	 0.000000
		CHANNELS 3 Zrotation Xrotation Yrotation
		JOINT LeftKnee
		{
			OFFSET	 0.000000	-18.469999	 0.000000
			CHANNELS 3 Zrotation Xrotation Yrotation
			JOINT LeftAnkle
			{
				OFFSET	 0.000000	-17.950001	 0.000000
				CHANNELS 3 Zrotation Xrotation Yrotation
				End Site 
				{
					OFFSET	 0.000000	-3.119996	 0.000000
				}
			}
		}
	}
	JOINT RightHip
	{
		OFFSET	-3.430000	 0.000000	 0.000000
		CHANNELS 3 Zrotation Xrotation Yrotation
		JOINT RightKnee
		{
			OFFSET	 0.000000	-18.809999	 0.000000
			CHANNELS 3 Zrotation Xrotation Yrotation
			JOINT RightAnkle
			{
				OFFSET	 0.000000	-17.570000	 0.000000
				CHANNELS 3 Zrotation Xrotation Yrotation
				End Site 
				{
					OFFSET	 0.000000	-3.250000	 0.000000
				}
			}
		}
	}
	JOINT Chest
	{
		OFFSET	 0.000000	 4.570000	 0.000000
		CHANNELS 3 Zrotation Xrotation Yrotation
		JOINT LeftCollar
		{
			OFFSET	 1.060000	 15.330000	 1.760000
			CHANNELS 3 Zrotation Xrotation Yrotation
			JOINT LeftShoulder
			{
				OFFSET	 5.810000	 0.000000	 0.000000
				CHANNELS 3 Zrotation Xrotation Yrotation
				JOINT LeftElbow
				{
					OFFSET	 0.000000	-12.080000	 0.000000
					CHANNELS 3 Zrotation Xrotation Yrotation
					JOINT LeftWrist
					{
						OFFSET	 0.000000	-9.820000	 0.000000
						CHANNELS 3 Zrotation Xrotation Yrotation
						End Site 
						{
							OFFSET	 0.000000	-7.369996	 0.000000
						}
					}
				}
			}
		}
		JOINT RightCollar
		{
			OFFSET	-1.060000	 15.330000	 1.760000
			CHANNELS 3 Zrotation Xrotation Yrotation
			JOINT RightShoulder
			{
				OFFSET	-6.060000	 0.000000	 0.000000
				CHANNELS 3 Zrotation Xrotation Yrotation
				JOINT RightElbow
				{
					OFFSET	 0.000000	-11.900000	 0.000000
					CHANNELS 3 Zrotation Xrotation Yrotation
					JOINT RightWrist
					{
						OFFSET	 0.000000	-9.520000	 0.000000
						CHANNELS 3 Zrotation Xrotation Yrotation
						End Site 
						{
							OFFSET	 0.000000	-7.140012	 0.000000
						}
					}
				}
			}
		}
		JOINT Neck
		{
			OFFSET	 0.000000	 17.620001	 0.000000
			CHANNELS 3 Zrotation Xrotation Yrotation
			JOINT Head
			{
				OFFSET	 0.000000	 5.190000	 0.000000
				CHANNELS 3 Zrotation Xrotation Yrotation
				End Site 
				{
					OFFSET	 0.000000	 4.140008	 0.000000
				}
			}
		}
	}
}

MOTION
Frames: 14
Frame Time: 0.033333
-27.668 -14.713 -27.1942 11.3848 32.5137 167.392 15.9868 -43.3891 5.64098 15.6858 75.8432 -3.99894 -6.51462 3.6616 -4.29929 -26.3497 -33.3343 -32.0032 -22.5586 72.0462 13.7049 3.37721 -6.5388 17.9204 14.4651 63.0986 -6.7912 0 0 0 32.1571 -10.8242 -11.629 -57.9703 -38.2547 -43.1652 114.889 -73.2189 44.8683 0 0 0 -36.1989 -7.7816 20.6509 45.7073 -47.1588 37.2567 -120.744 -74.7406 -33.2148 0 0 0 -2.98731 -17.224 23.9219 
-27.668 -14.713 -27.1942 11.3897 32.5156 167.387 15.9812 -43.3889 5.63627 15.7498 75.8493 -4.05886 -6.52043 3.64655 -4.29641 -26.3008 -33.3128 -32.0069 -22.6176 72.0346 13.7475 3.3757 -6.64516 17.8967 14.5972 63.0983 -6.98853 0 0 0 32.2569 -10.9742 -11.9289 -57.9614 -38.3043 -43.0762 114.696 -73.1407 44.6018 0 0 0 -36.152 -7.91544 20.5711 45.7403 -47.1952 37.2447 -120.517 -74.8078 -33.0722 0 0 0 -3.03227 -17.2795 23.6226 
-27.668 -14.713 -27.1942 11.4093 32.5347 167.377 15.983 -43.3625 5.62458 15.7707 75.8364 -4.09004 -6.52448 3.64907 -4.27087 -26.2729 -33.27 -32.0207 -22.6686 72.035 13.7827 3.38068 -6.72481 17.9073 14.7435 63.109 -7.19288 0 0 0 32.3035 -11.1001 -12.2006 -58.0114 -38.2812 -43.1229 114.458 -73.0529 44.2068 0 0 0 -36.0856 -8.02355 20.5048 45.7937 -47.2161 37.2777 -120.248 -74.8807 -32.8546 0 0 0 -3.07501 -17.298 23.3535 
-27.668 -14.7155 -27.1967 11.4371 32.5623 167.364 15.99 -43.333 5.60627 15.7619 75.8188 -4.11084 -6.53623 3.64465 -4.23458 -26.2434 -33.2196 -32.0285 -22.6819 72.039 13.7677 3.3777 -6.79134 17.9318 14.9847 63.0958 -7.48412 0 0 0 32.3441 -11.1971 -12.4583 -58.0189 -38.2855 -43.1293 114.233 -72.9516 43.8357 0 0 0 -36.0469 -8.12027 20.4494 45.8178 -47.2124 37.2986 -120.04 -74.9403 -32.6962 0 0 0 -3.12718 -17.3279 23.1479 
-27.6705 -14.7205 -27.2017 11.4996 32.6347 167.313 16.0065 -43.2493 5.58766 15.846 75.7868 -4.27487 -6.73776 3.23371 -4.15232 -26.1388 -33.1303 -32.0014 -22.6881 72.0646 13.7367 3.35646 -7.02205 17.9241 15.4112 63.091 -8.03199 0 0 0 32.5009 -11.3396 -12.8932 -57.9795 -38.2927 -43.0506 114.052 -72.6935 43.5021 0 0 0 -35.9723 -8.30837 20.2727 45.7521 -47.2001 37.2234 -119.644 -74.9991 -32.5629 0 0 0 -3.21073 -17.4454 22.7405 
-27.6755 -14.728 -27.2042 11.5666 32.7186 167.263 16.0226 -43.1425 5.5666 15.8425 75.7427 -4.35801 -6.96565 2.80357 -3.99959 -26.0518 -33.0176 -31.9596 -22.7774 72.0738 13.7601 3.3635 -7.11865 17.9751 15.8845 63.0993 -8.60333 0 0 0 32.5815 -11.4727 -13.3297 -57.9682 -38.2841 -42.9858 113.896 -72.4805 43.1433 0 0 0 -35.8873 -8.49937 20.1006 45.7848 -47.2067 37.2407 -119.167 -75.1081 -32.2296 0 0 0 -3.28216 -17.5938 22.3698 
-27.6805 -14.7355 -27.2092 11.6374 32.806 167.207 16.0517 -43.0465 5.54797 15.8414 75.7144 -4.44178 -7.20735 2.3582 -3.87659 -25.9874 -32.9099 -31.9385 -22.8682 72.0858 13.8065 3.39441 -7.18249 18.0389 16.3575 63.1051 -9.14231 0 0 0 32.6465 -11.5848 -13.7343 -57.9346 -38.2773 -42.9245 113.753 -72.2509 42.817 0 0 0 -35.815 -8.66723 19.9546 45.8656 -47.2461 37.3004 -118.69 -75.2484 -31.8354 0 0 0 -3.33478 -17.7528 22.1117 
-27.6855 -14.743 -27.2143 11.71 32.8995 167.15 16.082 -42.9349 5.53609 15.8012 75.6582 -4.5 -7.43633 1.96412 -3.7344 -25.9347 -32.8006 -31.9035 -22.8977 72.1062 13.8054 3.41397 -7.22456 18.1072 16.8559 63.1106 -9.71223 0 0 0 32.6715 -11.6366 -13.9969 -57.8877 -38.2166 -42.8877 113.626 -72.0005 42.5104 0 0 0 -35.7195 -8.84314 19.7847 45.9241 -47.27 37.3441 -118.025 -75.4215 -31.2876 0 0 0 -3.37227 -17.9252 21.9606 
-27.6906 -14.7506 -27.2193 11.7891 32.9951 167.082 16.1235 -42.821 5.53063 15.7224 75.6123 -4.52062 -7.58861 1.74434 -3.60847 -25.8781 -32.699 -31.8565 -22.9164 72.1345 13.7968 3.42297 -7.25447 18.1718 17.3699 63.1054 -10.2724 0 0 0 32.643 -11.6272 -14.1654 -57.8016 -38.1415 -42.8563 113.553 -71.7569 42.3013 0 0 0 -35.6619 -8.98007 19.6125 45.9449 -47.2575 37.39 -117.447 -75.5227 -30.8454 0 0 0 -3.4001 -18.1392 21.9025 
-27.6956 -14.7606 -27.2243 11.8523 33.0798 167.021 16.1538 -42.7245 5.5355 15.7043 75.5794 -4.58017 -7.65714 1.64236 -3.53906 -25.8205 -32.6159 -31.7974 -22.918 72.1551 13.773 3.43207 -7.29051 18.2094 17.868 63.0842 -10.8067 0 0 0 32.6241 -11.5942 -14.2734 -57.6646 -38.1081 -42.7337 113.526 -71.5352 42.2164 0 0 0 -35.6354 -9.1108 19.4446 45.9362 -47.2411 37.3986 -116.968 -75.6124 -30.509 0 0 0 -3.42152 -18.3747 21.9052 
-27.7006 -14.7656 -27.2218 11.9002 33.1504 166.964 16.1603 -42.6402 5.54787 15.7459 75.5456 -4.65969 -7.6752 1.58485 -3.49194 -25.7696 -32.5523 -31.7319 -22.9285 72.1712 13.7729 3.45443 -7.32036 18.2352 18.2636 63.0817 -11.2207 0 0 0 32.5534 -11.5817 -14.3333 -57.4948 -38.0392 -42.599 113.53 -71.3374 42.193 0 0 0 -35.6084 -9.24556 19.2585 45.9482 -47.2372 37.419 -116.465 -75.6876 -30.1606 0 0 0 -3.42811 -18.6199 21.9169 
-27.7031 -14.7706 -27.2168 11.92 33.1909 166.934 16.1735 -42.6026 5.57269 15.7722 75.5348 -4.68841 -7.51391 1.93083 -3.48278 -25.7408 -32.5182 -31.6889 -22.9323 72.1808 13.7785 3.47136 -7.34629 18.2364 18.5715 63.0667 -11.5321 0 0 0 32.44 -11.5875 -14.3503 -57.3215 -37.9807 -42.4786 113.446 -71.2077 42.0842 0 0 0 -35.6003 -9.36487 19.1128 45.996 -47.2161 37.4841 -116.081 -75.742 -29.8744 0 0 0 -3.43799 -18.8293 21.952 
-27.7006 -14.7732 -27.2118 11.9369 33.2083 166.899 16.185 -42.5887 5.60887 15.7956 75.546 -4.69638 -7.33636 2.28595 -3.61388 -25.7103 -32.5115 -31.6503 -22.9365 72.189 13.7787 3.47874 -7.37402 18.2353 18.827 63.0389 -11.7692 0 0 0 32.3365 -11.6108 -14.3578 -57.179 -37.9258 -42.3731 113.353 -71.1073 41.9422 0 0 0 -35.6222 -9.47067 19.0197 46.0579 -47.2214 37.5481 -115.672 -75.7642 -29.5407 0 0 0 -3.46598 -18.9997 21.9846 
-27.698 -14.7832 -27.2017 11.953 33.2385 166.86 16.2054 -42.5578 5.66882 15.8426 75.5368 -4.71634 -7.10916 2.68591 -3.69607 -25.6687 -32.4923 -31.5905 -22.9243 72.1831 13.7661 3.48698 -7.37605 18.2302 19.0544 63.0232 -11.9455 0 0 0 32.2566 -11.6672 -14.3107 -57.0678 -37.8537 -42.2685 113.22 -71.0227 41.7918 0 0 0 -35.6511 -9.55691 18.9315 46.1205 -47.2417 37.6175 -115.366 -75.7642 -29.3147 0 0 0 -3.50937 -19.1414 22.0225 
